<svg width="32" height="32" viewBox="0 0 32 32" fill="none" xmlns="http://www.w3.org/2000/svg">
<path d="M0 16C0 7.16344 7.16344 0 16 0V0C24.8366 0 32 7.16344 32 16V16C32 24.8366 24.8366 32 16 32V32C7.16344 32 0 24.8366 0 16V16Z" fill="#F4EBFF"/>
<path d="M20.3802 21.3346C21.2215 21.3346 21.9042 20.6526 21.9042 19.8106V16.7633L22.6662 16.0013L21.9042 15.2393V12.192C21.9042 11.35 21.2222 10.668 20.3802 10.668M11.619 10.668C10.777 10.668 10.095 11.35 10.095 12.192V15.2393L9.33301 16.0013L10.095 16.7633V19.8106C10.095 20.6526 10.777 21.3346 11.619 21.3346M12.9997 16.0013H13.0063M15.9997 16.0013H16.0063M18.9997 16.0013H19.0063M13.333 16.0013C13.333 16.1854 13.1838 16.3346 12.9997 16.3346C12.8156 16.3346 12.6663 16.1854 12.6663 16.0013C12.6663 15.8172 12.8156 15.668 12.9997 15.668C13.1838 15.668 13.333 15.8172 13.333 16.0013ZM16.333 16.0013C16.333 16.1854 16.1838 16.3346 15.9997 16.3346C15.8156 16.3346 15.6663 16.1854 15.6663 16.0013C15.6663 15.8172 15.8156 15.668 15.9997 15.668C16.1838 15.668 16.333 15.8172 16.333 16.0013ZM19.333 16.0013C19.333 16.1854 19.1838 16.3346 18.9997 16.3346C18.8156 16.3346 18.6663 16.1854 18.6663 16.0013C18.6663 15.8172 18.8156 15.668 18.9997 15.668C19.1838 15.668 19.333 15.8172 19.333 16.0013Z" stroke="#7F56D9" stroke-width="1.33333" stroke-linecap="round" stroke-linejoin="round"/>
</svg>
